<svg width="310" height="310" viewBox="0 0 310 310" fill="none" xmlns="http://www.w3.org/2000/svg">
<path fill-rule="evenodd" clip-rule="evenodd" d="M225.085 20.475C260.577 5.06 278.325 -2.64855 289.26 0.821264C298.74 3.83046 306.169 11.2594 309.178 20.7401C312.649 31.6746 304.94 49.422 289.525 84.9152L267.561 135.487C264.438 142.678 262.877 146.274 262.259 150.005C261.712 153.312 261.713 156.687 262.259 159.994C262.876 163.726 264.438 167.322 267.561 174.512L289.525 225.086C304.94 260.58 312.649 278.327 309.178 289.261C306.169 298.742 298.74 306.169 289.26 309.178C278.325 312.648 260.577 304.942 225.085 289.526L174.512 267.561C167.322 264.438 163.726 262.876 159.995 262.259C156.687 261.712 153.313 261.712 150.005 262.259C146.274 262.876 142.678 264.438 135.488 267.561L84.9154 289.526C49.4225 304.942 31.6749 312.648 20.7404 309.178C11.2599 306.169 3.83087 298.742 0.821553 289.261C-2.64907 278.327 5.05992 260.58 20.4753 225.086L42.439 174.512C45.5619 167.322 47.1235 163.726 47.7406 159.994C48.2875 156.687 48.2875 153.312 47.7406 150.005C47.1235 146.274 45.562 142.678 42.439 135.487L20.4753 84.9152C5.0601 49.422 -2.64857 31.6746 0.821553 20.7401C3.83075 11.2594 11.2597 3.83046 20.7404 0.821264C31.6749 -2.64857 49.4227 5.06 84.9154 20.475L135.488 42.4387C142.678 45.5617 146.274 47.1232 150.005 47.7403C153.313 48.2872 156.687 48.2872 159.995 47.7403C163.726 47.1232 167.322 45.5617 174.512 42.4387L225.085 20.475ZM147.857 98.8747C130.712 98.8747 122.139 98.8746 115.591 102.211C109.831 105.146 105.146 109.829 102.211 115.589C98.8747 122.137 98.875 130.711 98.875 147.857V162.143C98.875 179.288 98.8748 187.86 102.211 194.409C105.146 200.169 109.831 204.853 115.591 207.788C122.139 211.125 130.712 211.125 147.857 211.125H162.143C179.288 211.125 187.861 211.125 194.409 207.788C200.169 204.853 204.854 200.169 207.789 194.409C211.125 187.86 211.125 179.288 211.125 162.143V147.857C211.125 130.711 211.125 122.137 207.789 115.589C204.854 109.829 200.169 105.146 194.409 102.211C187.861 98.8746 179.288 98.8747 162.143 98.8747H147.857Z" fill="currentColor"/>
</svg>
